# xmcd
#
# Track frame offsets: 
#        150
#        12653
#        23852
#        41117
#        59771
#        73017
#        91064
#        101699
#        119335
#        140102
#        157742
#        174198
#
# Disc length: 2916 seconds
#
# Revision: 2
# Processed by: cddbd v1.5.2PL0 Copyright (c) Steve Scherf et al.
# Submitted via: ExactAudioCopyFreeDBPlugin 1.0
#
DISCID=a30b620c
DTITLE=Juno - V-Tyyli
DYEAR=2009
DGENRE=Rap
TTITLE0=Intro
TTITLE1=Aamukahvit (feat. Pyhimys)
TTITLE2=Kirjotuspöytä
TTITLE3=Kukka Kedolla
TTITLE4=Pullopostii
TTITLE5=Pohjanmaan Kautta (feat. Heikki Kuula)
TTITLE6=Sitaatti
TTITLE7=Postapocalyptica (feat. Matinpoika)
TTITLE8=Viihdepallo (feat. Jontti and TPH)
TTITLE9=Tervetuloo, Tervemenoo (feat. Matinpoika)
TTITLE10=Ei Pitäis
TTITLE11=Talviunta - Most Wanted (feat. Stepa) [Hidden Track]
EXTD=
EXTT0=
EXTT1=
EXTT2=
EXTT3=
EXTT4=
EXTT5=
EXTT6=
EXTT7=
EXTT8=
EXTT9=
EXTT10=
EXTT11=
PLAYORDER=
